<?xml version="1.0" encoding="UTF-8" standalone="no"?>
<!DOCTYPE svg PUBLIC "-//W3C//DTD SVG 1.1//EN" "http://www.w3.org/Graphics/SVG/1.1/DTD/svg11.dtd">
<svg width="100%" height="100%" viewBox="0 0 1080 1080" version="1.1" xmlns="http://www.w3.org/2000/svg" xmlns:xlink="http://www.w3.org/1999/xlink" xml:space="preserve" xmlns:serif="http://www.serif.com/" style="fill-rule:evenodd;clip-rule:evenodd;stroke-linejoin:round;stroke-miterlimit:2;">
    <g transform="matrix(1,0,0,1,140.058,-2.27374e-13)">
        <g transform="matrix(0.943864,0,0,0.863056,1.39365,119.315)">
            <path d="M118.046,162.847C118.046,148.781 107.603,137.36 94.741,137.36L48.131,137.36C35.269,137.36 24.826,148.781 24.826,162.847L24.826,766.491C24.826,780.557 35.269,791.978 48.131,791.978L94.741,791.978C107.603,791.978 118.046,780.557 118.046,766.491L118.046,162.847Z" style="fill:rgb(255,173,0);"/>
        </g>
        <g transform="matrix(0.730957,0,0,1.01845,6.67939,-14.809)">
            <path d="M440.043,745.368C440.043,734.795 428.083,726.212 413.352,726.212L51.517,726.212C36.786,726.212 24.826,734.795 24.826,745.368L24.826,783.68C24.826,794.252 36.786,802.836 51.517,802.836L413.352,802.836C428.083,802.836 440.043,794.252 440.043,783.68L440.043,745.368Z" style="fill:rgb(255,173,0);"/>
        </g>
    </g>
    <g transform="matrix(-0.373959,0.815329,-0.815329,-0.373959,1322.44,-71.6505)">
        <g transform="matrix(-0.464773,-1.01333,1.01333,-0.464773,687.239,1306.76)">
            <path d="M942.446,397.342C890.749,510.055 757.27,559.592 644.557,507.895C531.845,456.198 482.308,322.719 534.005,210.006C585.701,97.294 719.181,47.757 831.893,99.454C944.605,151.151 994.142,284.63 942.446,397.342ZM892.329,373.416C930.659,289.846 893.93,190.878 810.36,152.548C726.79,114.218 627.823,150.947 589.493,234.517C551.162,318.087 587.891,417.054 671.461,455.385C755.031,493.715 853.999,456.986 892.329,373.416Z" style="fill:rgb(0,97,255);"/>
        </g>
        <g transform="matrix(-0.593718,0.594528,0.646925,0.646043,1316.74,-744.139)">
            <path d="M1226.45,355.887C1226.45,346.077 1217.79,338.113 1207.11,338.113L834.408,338.113C823.734,338.113 815.068,346.077 815.068,355.887L815.068,391.434C815.068,401.244 823.734,409.208 834.408,409.208L1207.11,409.208C1217.79,409.208 1226.45,401.244 1226.45,391.434L1226.45,355.887Z" style="fill:rgb(255,173,0);"/>
        </g>
        <g transform="matrix(0.971753,-0.0712934,-0.0668961,-0.911816,78.4397,820.747)">
            <path d="M1226.45,355.887C1226.45,346.077 1218.98,338.113 1209.78,338.113L831.745,338.113C822.541,338.113 815.068,346.077 815.068,355.887L815.068,391.434C815.068,401.244 822.541,409.208 831.745,409.208L1209.78,409.208C1218.98,409.208 1226.45,401.244 1226.45,391.434L1226.45,355.887Z" style="fill:rgb(0,97,255);"/>
        </g>
        <g>
            <g transform="matrix(-0.327094,0.327541,0.646925,0.646043,766.492,-193.144)">
                <path d="M1226.45,355.887C1226.45,346.077 1210.72,338.113 1191.35,338.113L850.173,338.113C830.798,338.113 815.068,346.077 815.068,355.887L815.068,391.434C815.068,401.244 830.798,409.208 850.173,409.208L1191.35,409.208C1210.72,409.208 1226.45,401.244 1226.45,391.434L1226.45,355.887Z" style="fill:rgb(255,173,0);"/>
            </g>
            <g transform="matrix(-0.0534062,0.143905,0.832695,0.30903,359.329,177.198)">
                <path d="M1226.45,373.66C1226.45,354.041 1134.29,338.113 1020.76,338.113C907.236,338.113 815.068,354.041 815.068,373.66C815.068,393.28 907.236,409.208 1020.76,409.208C1134.29,409.208 1226.45,393.28 1226.45,373.66Z" style="fill:rgb(255,173,0);"/>
            </g>
            <g transform="matrix(0.470076,-0.0344875,-0.0668961,-0.911816,245.741,808.473)">
                <path d="M1226.45,355.887C1226.45,346.077 1211.01,338.113 1191.98,338.113L849.544,338.113C830.516,338.113 815.068,346.077 815.068,355.887L815.068,391.434C815.068,401.244 830.516,409.208 849.544,409.208L1191.98,409.208C1211.01,409.208 1226.45,401.244 1226.45,391.434L1226.45,355.887Z" style="fill:rgb(255,173,0);"/>
            </g>
        </g>
    </g>
</svg>
